<mxfile host="app.diagrams.net" modified="2020-10-22T01:38:31.478Z" agent="5.0 (Macintosh; Intel Mac OS X 10_15_7) AppleWebKit/537.36 (KHTML, like Gecko) Chrome/86.0.4240.75 Safari/537.36" etag="s-jBuKpNyboPHiozyU6Y" version="13.8.1" type="github">
  <diagram id="UzFX28oN7qpY-J6MItgO" name="Page-1">
    <mxGraphModel dx="1298" dy="810" grid="1" gridSize="10" guides="1" tooltips="1" connect="1" arrows="1" fold="1" page="1" pageScale="1" pageWidth="827" pageHeight="1169" math="0" shadow="0">
      <root>
        <mxCell id="0" />
        <mxCell id="1" parent="0" />
        <mxCell id="BCNzlC4R_2mg6clDJSKg-23" value="&lt;div&gt;&lt;span&gt;GenericAPIServer&lt;/span&gt;&lt;/div&gt;" style="rounded=0;whiteSpace=wrap;html=1;shadow=0;strokeWidth=1;fontSize=10;align=center;verticalAlign=bottom;" vertex="1" parent="1">
          <mxGeometry x="280.5" y="250" width="241" height="270" as="geometry" />
        </mxCell>
        <mxCell id="BCNzlC4R_2mg6clDJSKg-3" style="edgeStyle=orthogonalEdgeStyle;rounded=0;orthogonalLoop=1;jettySize=auto;html=1;exitX=0.5;exitY=1;exitDx=0;exitDy=0;strokeWidth=1;sketch=0;shadow=0;" edge="1" parent="1" source="BCNzlC4R_2mg6clDJSKg-1" target="BCNzlC4R_2mg6clDJSKg-2">
          <mxGeometry relative="1" as="geometry" />
        </mxCell>
        <mxCell id="BCNzlC4R_2mg6clDJSKg-1" value="&lt;font style=&quot;font-size: 10px;&quot;&gt;资源注册&lt;/font&gt;" style="rounded=0;whiteSpace=wrap;html=1;strokeWidth=1;sketch=0;shadow=0;fontSize=10;" vertex="1" parent="1">
          <mxGeometry x="321" y="40" width="160" height="40" as="geometry" />
        </mxCell>
        <mxCell id="BCNzlC4R_2mg6clDJSKg-5" style="edgeStyle=orthogonalEdgeStyle;rounded=0;sketch=0;orthogonalLoop=1;jettySize=auto;html=1;shadow=0;strokeWidth=1;fontSize=10;entryX=0.5;entryY=0;entryDx=0;entryDy=0;" edge="1" parent="1" source="BCNzlC4R_2mg6clDJSKg-2" target="BCNzlC4R_2mg6clDJSKg-4">
          <mxGeometry relative="1" as="geometry">
            <mxPoint x="401" y="190" as="targetPoint" />
          </mxGeometry>
        </mxCell>
        <mxCell id="BCNzlC4R_2mg6clDJSKg-2" value="&lt;font style=&quot;font-size: 10px&quot;&gt;Cobra命令参数解析&lt;br&gt;填充Options配置参数并验证&lt;br&gt;&lt;/font&gt;" style="rounded=0;whiteSpace=wrap;html=1;strokeWidth=1;sketch=0;shadow=0;fontSize=10;" vertex="1" parent="1">
          <mxGeometry x="321" y="120" width="160" height="40" as="geometry" />
        </mxCell>
        <mxCell id="BCNzlC4R_2mg6clDJSKg-15" style="edgeStyle=orthogonalEdgeStyle;rounded=0;sketch=0;orthogonalLoop=1;jettySize=auto;html=1;entryX=1;entryY=0.5;entryDx=0;entryDy=0;shadow=0;strokeWidth=1;fontSize=10;" edge="1" parent="1" source="BCNzlC4R_2mg6clDJSKg-4" target="BCNzlC4R_2mg6clDJSKg-7">
          <mxGeometry relative="1" as="geometry" />
        </mxCell>
        <mxCell id="BCNzlC4R_2mg6clDJSKg-20" style="edgeStyle=orthogonalEdgeStyle;rounded=0;sketch=0;orthogonalLoop=1;jettySize=auto;html=1;exitX=0.5;exitY=1;exitDx=0;exitDy=0;entryX=0.5;entryY=0;entryDx=0;entryDy=0;shadow=0;strokeWidth=1;fontSize=10;" edge="1" parent="1" source="BCNzlC4R_2mg6clDJSKg-4" target="BCNzlC4R_2mg6clDJSKg-17">
          <mxGeometry relative="1" as="geometry" />
        </mxCell>
        <mxCell id="BCNzlC4R_2mg6clDJSKg-4" value="&lt;font style=&quot;font-size: 10px&quot;&gt;CreateKubeAPIServerConfig&lt;br&gt;创建APIServer通用配置&lt;br&gt;&lt;/font&gt;" style="rounded=0;whiteSpace=wrap;html=1;strokeWidth=1;sketch=0;shadow=0;fontSize=10;" vertex="1" parent="1">
          <mxGeometry x="321" y="200" width="160" height="40" as="geometry" />
        </mxCell>
        <mxCell id="BCNzlC4R_2mg6clDJSKg-16" value="" style="group" vertex="1" connectable="0" parent="1">
          <mxGeometry x="40" y="200" width="160" height="240" as="geometry" />
        </mxCell>
        <mxCell id="BCNzlC4R_2mg6clDJSKg-7" value="&lt;font style=&quot;font-size: 10px&quot;&gt;genericConfig实例化&lt;br&gt;&lt;/font&gt;" style="rounded=0;whiteSpace=wrap;html=1;strokeWidth=1;sketch=0;shadow=0;fontSize=10;" vertex="1" parent="BCNzlC4R_2mg6clDJSKg-16">
          <mxGeometry width="160" height="40" as="geometry" />
        </mxCell>
        <mxCell id="BCNzlC4R_2mg6clDJSKg-10" value="&lt;font style=&quot;font-size: 10px&quot;&gt;OpenAPI/Swagger配置&lt;br&gt;&lt;/font&gt;" style="rounded=0;whiteSpace=wrap;html=1;strokeWidth=1;sketch=0;shadow=0;fontSize=10;" vertex="1" parent="BCNzlC4R_2mg6clDJSKg-16">
          <mxGeometry y="40" width="160" height="40" as="geometry" />
        </mxCell>
        <mxCell id="BCNzlC4R_2mg6clDJSKg-11" value="&lt;font style=&quot;font-size: 10px&quot;&gt;StorageFactory存储（etcd）配置&lt;br&gt;&lt;/font&gt;" style="rounded=0;whiteSpace=wrap;html=1;strokeWidth=1;sketch=0;shadow=0;fontSize=10;" vertex="1" parent="BCNzlC4R_2mg6clDJSKg-16">
          <mxGeometry y="80" width="160" height="40" as="geometry" />
        </mxCell>
        <mxCell id="BCNzlC4R_2mg6clDJSKg-12" value="&lt;font style=&quot;font-size: 10px&quot;&gt;Authentication认证配置&lt;br&gt;&lt;/font&gt;" style="rounded=0;whiteSpace=wrap;html=1;strokeWidth=1;sketch=0;shadow=0;fontSize=10;" vertex="1" parent="BCNzlC4R_2mg6clDJSKg-16">
          <mxGeometry y="120" width="160" height="40" as="geometry" />
        </mxCell>
        <mxCell id="BCNzlC4R_2mg6clDJSKg-13" value="&lt;font style=&quot;font-size: 10px&quot;&gt;Authorization授权配置&lt;br&gt;&lt;/font&gt;" style="rounded=0;whiteSpace=wrap;html=1;strokeWidth=1;sketch=0;shadow=0;fontSize=10;" vertex="1" parent="BCNzlC4R_2mg6clDJSKg-16">
          <mxGeometry y="160" width="160" height="40" as="geometry" />
        </mxCell>
        <mxCell id="BCNzlC4R_2mg6clDJSKg-14" value="&lt;font style=&quot;font-size: 10px&quot;&gt;Admission准入控制配置&lt;br&gt;&lt;/font&gt;" style="rounded=0;whiteSpace=wrap;html=1;strokeWidth=1;sketch=0;shadow=0;fontSize=10;" vertex="1" parent="BCNzlC4R_2mg6clDJSKg-16">
          <mxGeometry y="200" width="160" height="40" as="geometry" />
        </mxCell>
        <mxCell id="BCNzlC4R_2mg6clDJSKg-21" style="edgeStyle=orthogonalEdgeStyle;rounded=0;sketch=0;orthogonalLoop=1;jettySize=auto;html=1;exitX=0.5;exitY=1;exitDx=0;exitDy=0;entryX=0.5;entryY=0;entryDx=0;entryDy=0;shadow=0;strokeWidth=1;fontSize=10;" edge="1" parent="1" source="BCNzlC4R_2mg6clDJSKg-17" target="BCNzlC4R_2mg6clDJSKg-18">
          <mxGeometry relative="1" as="geometry" />
        </mxCell>
        <mxCell id="BCNzlC4R_2mg6clDJSKg-17" value="&lt;font style=&quot;font-size: 10px&quot;&gt;createAPIEctensionsServer&lt;br&gt;&lt;/font&gt;" style="rounded=0;whiteSpace=wrap;html=1;strokeWidth=1;sketch=0;shadow=0;fontSize=10;" vertex="1" parent="1">
          <mxGeometry x="321" y="280" width="160" height="40" as="geometry" />
        </mxCell>
        <mxCell id="BCNzlC4R_2mg6clDJSKg-22" style="edgeStyle=orthogonalEdgeStyle;rounded=0;sketch=0;orthogonalLoop=1;jettySize=auto;html=1;exitX=0.5;exitY=1;exitDx=0;exitDy=0;shadow=0;strokeWidth=1;fontSize=10;" edge="1" parent="1" source="BCNzlC4R_2mg6clDJSKg-18" target="BCNzlC4R_2mg6clDJSKg-19">
          <mxGeometry relative="1" as="geometry" />
        </mxCell>
        <mxCell id="BCNzlC4R_2mg6clDJSKg-18" value="&lt;font style=&quot;font-size: 10px&quot;&gt;CreateKubeAPIServer&lt;br&gt;&lt;/font&gt;" style="rounded=0;whiteSpace=wrap;html=1;strokeWidth=1;sketch=0;shadow=0;fontSize=10;" vertex="1" parent="1">
          <mxGeometry x="321" y="360" width="160" height="40" as="geometry" />
        </mxCell>
        <mxCell id="BCNzlC4R_2mg6clDJSKg-19" value="&lt;font style=&quot;font-size: 10px&quot;&gt;createAggregatorServer&lt;br&gt;&lt;/font&gt;" style="rounded=0;whiteSpace=wrap;html=1;strokeWidth=1;sketch=0;shadow=0;fontSize=10;" vertex="1" parent="1">
          <mxGeometry x="321" y="440" width="160" height="40" as="geometry" />
        </mxCell>
        <mxCell id="BCNzlC4R_2mg6clDJSKg-24" value="&lt;font style=&quot;font-size: 10px&quot;&gt;创建GenericAPIServer&lt;br&gt;&lt;/font&gt;" style="rounded=0;whiteSpace=wrap;html=1;strokeWidth=1;sketch=0;shadow=0;fontSize=10;" vertex="1" parent="1">
          <mxGeometry x="640" y="120" width="160" height="40" as="geometry" />
        </mxCell>
      </root>
    </mxGraphModel>
  </diagram>
</mxfile>
